HIERARCHY
ROOT Hips
{
 OFFSET 0.000000 0.000000 0.000000
 CHANNELS 6 Xposition Yposition Zposition Yrotation Xrotation Zrotation
 JOINT Chest
 {
  OFFSET 0.000000 9.585900 0.002600
  CHANNELS 3 Yrotation Xrotation Zrotation
  JOINT Chest2
  {
   OFFSET 0.000000 9.601200 -0.005300
   CHANNELS 3 Yrotation Xrotation Zrotation
   JOINT Chest3
   {
    OFFSET 0.000000 9.561800 0.000000
    CHANNELS 3 Yrotation Xrotation Zrotation
    JOINT Chest4
    {
     OFFSET 0.000000 9.552100 0.000000
     CHANNELS 3 Yrotation Xrotation Zrotation
     JOINT Neck
     {
      OFFSET 0.000000 14.453000 0.000000
      CHANNELS 3 Yrotation Xrotation Zrotation
      JOINT Head
      {
       OFFSET 0.000000 8.936500 -0.011300
       CHANNELS 3 Yrotation Xrotation Zrotation
       End Site
       {
        OFFSET 0.000000 17.073600 -0.006000
       }
      }
     }
     JOINT RightCollar
     {
      OFFSET -2.921100 9.558500 0.000000
      CHANNELS 3 Yrotation Xrotation Zrotation
      JOINT RightShoulder
      {
       OFFSET -13.519700 0.000000 0.000000
       CHANNELS 3 Yrotation Xrotation Zrotation
       JOINT RightElbow
       {
        OFFSET 0.000000 -29.696600 0.000000
        CHANNELS 3 Yrotation Xrotation Zrotation
        JOINT RightWrist
        {
         OFFSET 0.000000 -24.004700 0.000000
         CHANNELS 3 Yrotation Xrotation Zrotation
         End Site
         {
          OFFSET 0.000000 -17.728500 0.000000
         }
        }
       }
      }
     }
     JOINT LeftCollar
     {
      OFFSET 2.921100 9.558500 0.000000
      CHANNELS 3 Yrotation Xrotation Zrotation
      JOINT LeftShoulder
      {
       OFFSET 13.519700 0.000000 0.000000
       CHANNELS 3 Yrotation Xrotation Zrotation
       JOINT LeftElbow
       {
        OFFSET 0.000000 -29.696600 0.000000
        CHANNELS 3 Yrotation Xrotation Zrotation
        JOINT LeftWrist
        {
         OFFSET 0.000000 -24.004700 0.000000
         CHANNELS 3 Yrotation Xrotation Zrotation
         End Site
         {
          OFFSET 0.000000 -17.728500 0.000000
         }
        }
       }
      }
     }
    }
   }
  }
 }
 JOINT RightHip
 {
  OFFSET -7.771700 -0.012900 -0.001300
  CHANNELS 3 Yrotation Xrotation Zrotation
  JOINT RightKnee
  {
   OFFSET 0.000000 -40.869800 0.001200
   CHANNELS 3 Yrotation Xrotation Zrotation
   JOINT RightAnkle
   {
    OFFSET 0.000000 -39.717900 0.002100
    CHANNELS 3 Yrotation Xrotation Zrotation
    JOINT RightToe
    {
     OFFSET 0.000000 -4.965400 11.033500
     CHANNELS 3 Yrotation Xrotation Zrotation
     End Site
     {
      OFFSET 0.000000 -1.423100 5.872300
     }
    }
   }
  }
 }
 JOINT LeftHip
 {
  OFFSET 7.771700 -0.012900 -0.001300
  CHANNELS 3 Yrotation Xrotation Zrotation
  JOINT LeftKnee
  {
   OFFSET 0.000000 -40.869800 0.001200
   CHANNELS 3 Yrotation Xrotation Zrotation
   JOINT LeftAnkle
   {
    OFFSET 0.000000 -39.717900 0.002100
    CHANNELS 3 Yrotation Xrotation Zrotation
    JOINT LeftToe
    {
     OFFSET 0.000000 -4.965400 11.033500
     CHANNELS 3 Yrotation Xrotation Zrotation
     End Site
     {
      OFFSET 0.000000 -1.423100 5.872300
     }
    }
   }
  }
 }
}
MOTION
Frames: 5
Frame Time: 0.008333
0.000000 85.388000 0.000000 0.000000 -5.767877 0.000000 0.000000 11.653817 0.000000 0.000000 -5.885947 0.000000 0.000000 -0.000000 0.000000 0.000000 -0.000000 0.000000 0.000000 12.528835 0.000000 0.000000 0.711642 0.000000 0.000000 -0.000000 0.000000 0.000000 0.000000 -90.000000 0.000000 -2.309062 0.000000 0.000000 2.309062 0.000000 0.000000 -0.000000 0.000000 0.000000 -0.000000 90.000000 0.000000 -2.309062 0.000000 0.000000 2.309062 0.000000 0.000000 8.520406 0.000000 0.000000 1.905762 0.000000 -0.000000 -4.658285 0.000000 0.000000 -0.000000 0.000000 0.000000 8.520406 0.000000 0.000000 1.905762 0.000000 -0.000000 -4.658285 0.000000 0.000000 -0.000000 0.000000
-50.689940 62.217754 13.849500 176.585001 -53.651677 0.117692 4.951945 26.441959 0.477038 0.747153 4.381030 0.023041 1.172346 7.020786 0.057131 3.813029 21.391305 0.688345 -4.795256 20.427151 1.869191 -9.194367 2.333655 4.787913 4.243843 10.982154 6.714721 -9.248031 -15.201122 -10.610186 -82.471316 -46.541539 126.313631 -2.531005 -9.445824 -6.316783 -8.501014 7.843514 -0.296788 4.266211 -12.597259 15.807070 81.254610 -56.517103 -114.989027 14.189212 -12.874286 -3.669766 3.181473 -13.040457 -7.112895 3.375316 61.583027 -1.214161 1.396262 -9.738761 10.651611 0.042618 -0.133183 0.015103 0.563626 -2.408898 6.674106 122.077620 84.048464 130.638909 -4.877863 -16.369209 -10.219770 0.383449 -21.556582 -0.731285
-50.691106 62.217857 13.850406 176.571340 -53.621572 0.121095 4.942833 26.456523 0.466885 0.733779 4.425040 0.015752 1.196367 6.961080 0.063257 3.798304 21.431458 0.683609 -4.746268 20.327647 1.869756 -9.096590 2.145836 4.789769 4.192871 10.992943 6.653353 -9.368302 -15.167614 -10.551136 -83.379219 -46.958731 126.840513 -2.442225 -9.526426 -6.405884 -8.461115 7.814296 -0.279844 4.340346 -12.548954 15.846515 81.914315 -56.719552 -115.411648 14.263326 -13.025295 -3.217069 3.186675 -13.070051 -7.109464 3.397099 61.579691 -1.190166 1.385296 -9.748224 10.644283 0.044605 -0.138260 0.018698 0.573239 -2.438503 6.683110 122.058224 84.048059 130.618610 -4.880461 -16.369712 -10.220977 0.382072 -21.555388 -0.727729
-50.691641 62.218348 13.850716 176.557623 -53.588751 0.119553 4.939951 26.468263 0.463249 0.724603 4.442329 0.011937 1.212951 6.927763 0.067540 3.780431 21.468060 0.679098 -4.651974 20.201882 1.878538 -9.023586 1.993887 4.792934 4.162643 10.975882 6.606548 -9.472781 -15.100305 -10.514306 -84.297635 -47.363766 127.377407 -2.356146 -9.573694 -6.434120 -8.432448 7.782894 -0.262509 4.398159 -12.493966 15.890860 82.632573 -56.949177 -115.872182 14.317003 -13.145034 -2.778037 3.191650 -13.102589 -7.100796 3.408848 61.576446 -1.175078 1.382198 -9.755062 10.638869 0.044011 -0.131714 0.020157 0.581922 -2.470631 6.697658 122.065494 84.049245 130.625204 -4.883111 -16.369249 -10.222103 0.382895 -21.556890 -0.724471
-50.692850 62.220845 13.848871 176.555903 -53.566738 0.112746 4.919692 26.492094 0.449438 0.727695 4.443159 0.013436 1.209432 6.939158 0.064952 3.776480 21.468279 0.676255 -4.585171 20.113241 1.883281 -8.909019 1.824705 4.788795 4.141091 10.952779 6.564149 -9.555586 -15.020285 -10.485057 -85.206471 -47.754948 127.915108 -2.278639 -9.578597 -6.405555 -8.409833 7.745877 -0.246687 4.435326 -12.448261 15.922389 83.351452 -57.215171 -116.317120 14.349046 -13.224405 -2.360893 3.185277 -13.118410 -7.095844 3.421599 61.569479 -1.162980 1.380844 -9.772773 10.636674 0.039050 -0.124405 0.018514 0.583957 -2.491016 6.707740 122.056295 84.050484 130.614855 -4.888351 -16.363897 -10.223572 0.383700 -21.563360 -0.719788
